<svg xmlns="http://www.w3.org/2000/svg" width="600" height="380" viewBox="0 0 600 380">
  <defs>
    <linearGradient id="bg" x1="0" y1="0" x2="1" y2="1">
      <stop offset="0%" stop-color="#f8fafc"/>
      <stop offset="100%" stop-color="#eef2f7"/>
    </linearGradient>
  </defs>
  <rect width="100%" height="100%" fill="url(#bg)"/>
  <rect x="40" y="40" width="520" height="300" rx="10" fill="#fff" stroke="#d1d5db"/>
  <!-- Header -->
  <circle cx="100" cy="95" r="28" fill="#e5e7eb" stroke="#cbd5e1"/>
  <rect x="150" y="72" width="220" height="14" rx="3" fill="#111827"/>
  <rect x="150" y="94" width="180" height="10" rx="2" fill="#9ca3af"/>
  <rect x="150" y="112" width="260" height="8" rx="2" fill="#cbd5e1"/>
  <rect x="150" y="126" width="240" height="8" rx="2" fill="#e5e7eb"/>
  <!-- Section titles -->
  <rect x="70" y="160" width="180" height="12" rx="2" fill="#111827"/>
  <rect x="70" y="176" width="460" height="1" fill="#1f2937"/>
  <!-- Rows -->
  <rect x="70" y="194" width="120" height="8" rx="2" fill="#9ca3af"/>
  <rect x="210" y="194" width="240" height="8" rx="2" fill="#6b7280"/>
  <rect x="70" y="212" width="380" height="6" rx="2" fill="#cbd5e1"/>

  <rect x="70" y="236" width="180" height="12" rx="2" fill="#111827"/>
  <rect x="70" y="252" width="460" height="2" fill="#1f2937"/>
  <rect x="70" y="266" width="120" height="8" rx="2" fill="#9ca3af"/>
  <rect x="210" y="266" width="260" height="8" rx="2" fill="#6b7280"/>
  <rect x="70" y="284" width="400" height="6" rx="2" fill="#cbd5e1"/>

  <text x="40" y="24" fill="#334155" font-size="14" font-family="Inter, Segoe UI, Arial">Classic One</text>
</svg>