<svg width="400" height="240" viewBox="0 0 400 240" xmlns="http://www.w3.org/2000/svg">
  <rect width="400" height="240" fill="#ffffff"/>
  <rect x="0" y="0" width="120" height="240" fill="#2f3830"/>
  <circle cx="60" cy="60" r="40" fill="#cbd5e1" stroke="#94a3b8" stroke-width="4"/>
  <rect x="18" y="120" width="84" height="10" rx="5" fill="#e2e8f0" opacity="0.6"/>
  <rect x="18" y="138" width="84" height="10" rx="5" fill="#e2e8f0" opacity="0.6"/>
  <rect x="140" y="24" width="18" height="18" rx="9" fill="#3f4a3e"/>
  <rect x="164" y="26" width="180" height="12" rx="6" fill="#64748b" opacity="0.8"/>
  <rect x="140" y="60" width="18" height="18" rx="9" fill="#3f4a3e"/>
  <rect x="164" y="62" width="220" height="8" rx="4" fill="#94a3b8" opacity="0.6"/>
  <rect x="164" y="74" width="180" height="8" rx="4" fill="#94a3b8" opacity="0.6"/>
  <rect x="140" y="98" width="18" height="18" rx="9" fill="#3f4a3e"/>
  <rect x="164" y="100" width="220" height="8" rx="4" fill="#94a3b8" opacity="0.6"/>
  <rect x="140" y="132" width="18" height="18" rx="9" fill="#3f4a3e"/>
  <rect x="164" y="134" width="200" height="8" rx="4" fill="#94a3b8" opacity="0.6"/>
</svg>
