<svg width="400" height="240" viewBox="0 0 400 240" xmlns="http://www.w3.org/2000/svg">
  <rect width="400" height="240" fill="#ffffff"/>
  <rect x="0" y="0" width="120" height="240" fill="#2f3830"/>
  <circle cx="60" cy="60" r="34" fill="#cbd5e1" stroke="#94a3b8" stroke-width="4"/>
  <rect x="20" y="110" width="80" height="6" rx="3" fill="#e2e8f0" opacity="0.7"/>
  <rect x="20" y="124" width="80" height="6" rx="3" fill="#e2e8f0" opacity="0.6"/>
  <rect x="20" y="138" width="80" height="6" rx="3" fill="#e2e8f0" opacity="0.6"/>
  <rect x="140" y="20" width="120" height="18" rx="9" fill="#3f4a3e"/>
  <rect x="140" y="48" width="220" height="6" rx="3" fill="#94a3b8" opacity="0.6"/>
  <rect x="140" y="70" width="120" height="18" rx="9" fill="#3f4a3e"/>
  <rect x="140" y="98" width="220" height="6" rx="3" fill="#94a3b8" opacity="0.6"/>
  <rect x="140" y="118" width="160" height="6" rx="3" fill="#94a3b8" opacity="0.6"/>
  <rect x="140" y="140" width="120" height="18" rx="9" fill="#3f4a3e"/>
  <rect x="140" y="168" width="220" height="6" rx="3" fill="#94a3b8" opacity="0.6"/>
</svg>
